# xmcd
#
# Track frame offsets: 
#        150
#        13213
#        28683
#        38286
#        55088
#        68802
#        77240
#        90619
#        106217
#
# Disc length: 1774 seconds
#
# Revision: 0
# Processed by: cddbd v1.5.2PL0 Copyright (c) Steve Scherf et al.
# Submitted via: ExactAudioCopy v1.3
#
DISCID=6506ec09
DTITLE=Tower of Dudes and The Hex - Boring Country Songs
DYEAR=2017
DGENRE=Country
TTITLE0=Tower of Dudes - Demon Liquor
TTITLE1=Tower of Dudes - Country Trope
TTITLE2=Tower of Dudes - Pain Pills
TTITLE3=Tower of Dudes - Raised In Flames
TTITLE4=Tower of Dudes - Student Loan Officer
TTITLE5=The Hex - The Pale Days
TTITLE6=The Hex - Devil's Daughter
TTITLE7=The Hex - True Love Will Let You Down
TTITLE8=The Hex - Where Will Our Wicked Souls Go?
EXTD=
EXTT0=
EXTT1=
EXTT2=
EXTT3=
EXTT4=
EXTT5=
EXTT6=
EXTT7=
EXTT8=
PLAYORDER=
